<?xml version="1.0" encoding="UTF-8" standalone="no"?>
<svg
   version="1.1"
   viewBox="-5.0 -10.0 110.0 135.0"
   id="svg2"
   sodipodi:docname="noun-architecture-8012417.svg"
   inkscape:version="1.4 (e7c3feb1, 2024-10-09)"
   xmlns:inkscape="http://www.inkscape.org/namespaces/inkscape"
   xmlns:sodipodi="http://sodipodi.sourceforge.net/DTD/sodipodi-0.dtd"
   xmlns="http://www.w3.org/2000/svg"
   xmlns:svg="http://www.w3.org/2000/svg">
  <defs
     id="defs2" />
  <sodipodi:namedview
     id="namedview2"
     pagecolor="#505050"
     bordercolor="#eeeeee"
     borderopacity="1"
     inkscape:showpageshadow="0"
     inkscape:pageopacity="0"
     inkscape:pagecheckerboard="0"
     inkscape:deskcolor="#d1d1d1"
     inkscape:zoom="5.421254"
     inkscape:cx="48.973909"
     inkscape:cy="80.331968"
     inkscape:window-width="1440"
     inkscape:window-height="796"
     inkscape:window-x="0"
     inkscape:window-y="31"
     inkscape:window-maximized="1"
     inkscape:current-layer="svg2" />
  <path
     d="m12.25 23.117v42.148c2.6719-3.5469 7.8164-3.9922 11.055-0.97656v-44.297c-0.51563-0.83984-1.2383-1.543-2.0938-2.043-3.9375-2.2852-8.9609 0.54688-8.9609 5.168zm53.766 57.84-3.0273-3.0273-1.8984 4.9258zm18.398-20.363-18.32 18.32 1.0625 1.0664 18.32-18.32zm-19.383 17.258-1.0625-1.0664 18.32-18.316 1.0664 1.0625zm18.316-20.445 0.55469-0.55078c1.4219-1.4219 3.8516-0.40234 3.8516 1.5938 0 1.0391-0.56641 1.5-1.2109 2.1484zm-3.0898 11.594v6.7188h-6.7188zm-7.7891-44.074v6.7344h6.7344zm-47.668-1.0586h46.164v8.543c0 0.41406 0.33594 0.75 0.75 0.75h8.543v25.215l-17.34 17.344h-44.699c-5.3047 0-7.9609-6.4375-4.2188-10.184 1.0781-1.0781 2.5703-1.7461 4.2188-1.7461 2.1641 0 4.0781 1.1367 5.1602 2.9688 0.46484 0.78906 1.4258 0.37891 1.4258-0.32422zm6.3438 7.1914 1.9883 1.9883c0.29297 0.29297 0.76563 0.29297 1.0625 0 0.65234-0.65234-0.23047-1.2891-0.70703-1.7656h32.934l-0.70703 0.70703c-0.69922 0.69922 0.36328 1.7578 1.0625 1.0625l1.9844-1.9883 0.15234-0.83984-2.0312-2.1016c-0.29297-0.29297-0.76562-0.29297-1.0625 0-0.63672 0.63672 0.1875 1.2461 0.59766 1.6562l-32.934 0.003906 0.59766-0.59766c0.69922-0.69922-0.36328-1.7578-1.0625-1.0625l-1.8789 1.8789c-0.28906 0.29688-0.28906 0.75 0.003906 1.0586zm3.0938 36.324c0 0.41406 0.33594 0.75 0.75 0.75h29.934c0.41406 0 0.75-0.33594 0.75-0.75v-18.512c0-0.98828-1.5-0.98828-1.5 0v6.3477h-9.0664c-0.98828 0-0.98828 1.5 0 1.5h9.0664v9.918l-28.434-0.003907v-9.918h13.465v5.5195c0 0.98828 1.5 0.98828 1.5 0v-6.2695c0-0.41406-0.33594-0.75-0.75-0.75h-14.215v-5.5977h3.8633c0.98828 0 0.98828-1.5 0-1.5h-3.8633v-9.918h13.465v9.918h-4.4531c-0.98828 0-0.98828 1.5 0 1.5h5.2031c0.41406 0 0.75-0.33594 0.75-0.75v-10.668h13.465v5.1016c0 0.98828 1.5 0.98828 1.5 0v-5.8516c0-0.41406-0.33594-0.75-0.75-0.75h-29.93c-0.41406 0-0.75 0.33594-0.75 0.75z"
     fill-rule="evenodd"
     id="path1" />
</svg>
