<?xml version="1.0" encoding="UTF-8" standalone="no"?>
<svg
   version="1.1"
   viewBox="-5.0 -10.0 110.0 135.0"
   id="svg2"
   sodipodi:docname="noun-construction-7093689.svg"
   inkscape:version="1.4 (e7c3feb1, 2024-10-09)"
   xmlns:inkscape="http://www.inkscape.org/namespaces/inkscape"
   xmlns:sodipodi="http://sodipodi.sourceforge.net/DTD/sodipodi-0.dtd"
   xmlns="http://www.w3.org/2000/svg"
   xmlns:svg="http://www.w3.org/2000/svg">
  <defs
     id="defs2" />
  <sodipodi:namedview
     id="namedview2"
     pagecolor="#505050"
     bordercolor="#eeeeee"
     borderopacity="1"
     inkscape:showpageshadow="0"
     inkscape:pageopacity="0"
     inkscape:pagecheckerboard="0"
     inkscape:deskcolor="#d1d1d1"
     inkscape:zoom="4.7969218"
     inkscape:cx="52.84639"
     inkscape:cy="88.494251"
     inkscape:window-width="1440"
     inkscape:window-height="796"
     inkscape:window-x="0"
     inkscape:window-y="31"
     inkscape:window-maximized="1"
     inkscape:current-layer="svg2" />
  <path
     d="m26.121 9.6875h13.328v9.4219h-13.328zm-8.125 87.023h66.359v-32.066h-35.426v12.41h-10.113v-48.57h31.809l0.003906 11.066-8.5938 7.5h-3.1875v7.2461h25.508v-7.2461l-3.1875 0.003907-8.5938-7.5v-11.07h23.188v-7.4297h-4.832v-3.5273h-0.003907c0-0.4375-0.29688-0.83594-0.74219-0.94141l-54.441-12.516v-0.78125h-5.9141v0.67188l-20.762 14.258h-4.8281v13.098h13.098v-13.098h-4.8516l17.344-11.91v1.4297h5.9141v-1.6758l53.242 12.227v2.7695l-69.703-0.003906v7.4297h7.4766v0.046875 19.262c-0.003906 0.046875-0.003906 0.089843 0 0.13672l-0.003906 29.125h-8.7617zm10.699-19.656v-9.4492l8.1758 7.1133v2.3359zm0.37891-48.57h7.7969v8.0898zm7.7969 43.656-7.6641-6.668 7.6641-6.668zm-8.1758-41.254 7.7461 8.0391-7.7461 6.7969zm0.50781 16.969 7.668-6.7305v13.406zm-0.50781 2.1367 7.668 6.6758-7.668 6.6719zm49.523-2.9375h-13.234l6.6172-5.7773zm-15.949 22.469v7.293h-7.293v-7.293zm15.336 0v7.293h-7.293v-7.293zm-15.336 15.012v7.293h-7.293v-7.293zm15.336 0v7.293h-7.293v-7.293zm-45.566 0v7.293h-7.293v-7.293zm15.332 0v7.293h-7.293v-7.293z"
     fill-rule="evenodd"
     id="path1" />
</svg>
