<?xml version="1.0" encoding="UTF-8" standalone="no"?>
<svg
   version="1.1"
   viewBox="-5.0 -10.0 110.0 135.0"
   id="svg2"
   sodipodi:docname="noun-premium-7828552.svg"
   inkscape:version="1.4 (e7c3feb1, 2024-10-09)"
   xmlns:inkscape="http://www.inkscape.org/namespaces/inkscape"
   xmlns:sodipodi="http://sodipodi.sourceforge.net/DTD/sodipodi-0.dtd"
   xmlns="http://www.w3.org/2000/svg"
   xmlns:svg="http://www.w3.org/2000/svg">
  <defs
     id="defs2" />
  <sodipodi:namedview
     id="namedview2"
     pagecolor="#505050"
     bordercolor="#eeeeee"
     borderopacity="1"
     inkscape:showpageshadow="0"
     inkscape:pageopacity="0"
     inkscape:pagecheckerboard="0"
     inkscape:deskcolor="#d1d1d1"
     inkscape:zoom="4.2740741"
     inkscape:cx="55.099653"
     inkscape:cy="67.5"
     inkscape:window-width="1440"
     inkscape:window-height="796"
     inkscape:window-x="0"
     inkscape:window-y="31"
     inkscape:window-maximized="1"
     inkscape:current-layer="svg2" />
  <path
     d="m92.5 61.023c0.55078 0 1 0.44922 1 1 0 0.55078-0.44922 1-1 1h-3.5469c-0.03125 0.039062-0.066406 0.078124-0.10547 0.11328l-4.6562 4.2852-0.72656 6.2852c-0.042969 0.38281-0.30078 0.69141-0.63672 0.82031l-5.6953 2.6055-2.6328 5.7539c-0.14844 0.32812-0.45703 0.53516-0.79297 0.57422l-6.2852 0.72656-4.2812 4.6602c-0.25781 0.28125-0.64062 0.37891-0.98828 0.28906l-6.1484-1.2383-5.5156 3.1094c-0.32031 0.17969-0.69141 0.16406-0.98828-0.007812l-5.5039-3.1016-6.2031 1.2539c-0.35156 0.070312-0.69922-0.054688-0.92969-0.30078l-4.2852-4.6602-6.2852-0.72656c-0.38281-0.042969-0.69141-0.30078-0.82031-0.63672l-2.6055-5.6953-5.7539-2.6328c-0.32812-0.14844-0.53516-0.45703-0.57422-0.79297l-0.73047-6.2852-4.6602-4.2812c-0.039063-0.035156-0.074219-0.074219-0.10547-0.11328h-3.543c-0.55078 0-1-0.44922-1-1 0-0.55078 0.44922-1 1-1h85.004zm-6.4766 2h-7.0703c-2.4922 5.5352-6.5273 10.227-11.551 13.527-5 3.2852-10.98 5.1953-17.402 5.1953s-12.402-1.9102-17.441-5.2188c-5.0273-3.3242-9.0352-8-11.512-13.504h-7.0703l3.457 3.1797c0.17188 0.15625 0.28906 0.375 0.31641 0.62109l0.70312 6.0977 5.5781 2.5547c0.21094 0.097657 0.38672 0.26563 0.49219 0.49219l2.5547 5.5781 6.0977 0.70312c0.23047 0.027344 0.45312 0.13281 0.62109 0.31641l4.1562 4.5195 5.957-1.2031c0.24219-0.0625 0.50781-0.035156 0.74219 0.09375l5.3477 3.0156 5.3477-3.0156c0.19922-0.10937 0.44141-0.15625 0.68359-0.10547l6.0195 1.2148 4.1562-4.5195c0.15625-0.17188 0.375-0.28906 0.62109-0.31641l6.0977-0.70312 2.5547-5.5781c0.097656-0.21094 0.26562-0.38672 0.49219-0.49219l5.5781-2.5547 0.70312-6.0977c0.027344-0.23047 0.13281-0.45312 0.31641-0.62109l3.457-3.1797zm-9.2695 0h-53.512c2.3438 4.8086 5.9492 8.8906 10.414 11.836 4.7148 3.0938 10.32 4.8828 16.344 4.8828 6.0195 0 11.625-1.7891 16.309-4.8633 4.4648-2.9258 8.0938-7.0273 10.445-11.859zm-69.258-24.051c-0.55078 0-1-0.44922-1-1 0-0.55078 0.44922-1 1-1h3.543c0.042969-0.054687 0.09375-0.10547 0.14453-0.14844l4.6211-4.2461 0.72656-6.2852c0.042969-0.38281 0.30078-0.69141 0.63672-0.82031l5.6953-2.6055 2.6328-5.7539c0.14844-0.32812 0.45703-0.53516 0.79297-0.57422l6.2852-0.72656 4.2812-4.6602c0.25781-0.28125 0.64062-0.37891 0.98828-0.28906l6.1484 1.2383 5.5156-3.1094c0.32031-0.17969 0.69141-0.16406 0.98828 0.007812l5.5039 3.1016 6.2031-1.2539c0.35156-0.070312 0.69922 0.054688 0.92969 0.30078l4.2852 4.6602 6.2852 0.72656c0.38281 0.042969 0.69141 0.30078 0.82031 0.63672l2.6055 5.6953 5.7539 2.6328c0.32813 0.14844 0.53516 0.45703 0.57422 0.79297l0.73047 6.2852 4.6602 4.2812c0.039063 0.035156 0.074219 0.074219 0.10547 0.11328h3.543c0.55078 0 1 0.44922 1 1 0 0.55078-0.44922 1-1 1h-85.004zm6.4766-2h7.0742c2.4922-5.5352 6.5273-10.227 11.551-13.523 5.0039-3.2852 10.984-5.1953 17.398-5.1953 6.418 0 12.398 1.9102 17.398 5.1953 5.0234 3.3008 9.0586 7.9922 11.551 13.523h7.0742l-3.457-3.1758c-0.17188-0.15625-0.28906-0.375-0.31641-0.62109l-0.70312-6.0977-5.5781-2.5547c-0.21094-0.097657-0.38672-0.26563-0.49219-0.49219l-2.5547-5.5781-6.0977-0.70312c-0.23047-0.027344-0.45312-0.13281-0.62109-0.31641l-4.1562-4.5195-5.957 1.2031c-0.24219 0.0625-0.50781 0.035156-0.74219-0.09375l-5.3477-3.0156-5.3477 3.0156c-0.19922 0.10937-0.44141 0.15625-0.68359 0.10547l-6.0195-1.2148-4.1562 4.5195c-0.15625 0.17188-0.375 0.28906-0.62109 0.31641l-6.0977 0.70312-2.5547 5.5781c-0.097656 0.21094-0.26562 0.38672-0.49219 0.49219l-5.5781 2.5547-0.70312 6.0977c-0.027344 0.23047-0.13281 0.45312-0.31641 0.62109l-3.457 3.1758zm9.2695 0h53.508c-2.3555-4.832-5.9844-8.9297-10.449-11.863-4.6758-3.0703-10.281-4.8594-16.305-4.8594-6.0273 0-11.629 1.7852-16.305 4.8594-4.4609 2.9297-8.0938 7.0312-10.449 11.863zm27.609 6.2539 2.0781 3.3984 3.8789 0.92578c0.53516 0.125 0.86719 0.66797 0.74219 1.2031-0.042969 0.18359-0.13281 0.34375-0.25781 0.46875l-2.5508 2.9805 0.31641 3.9805c0.042968 0.55078-0.36719 1.0312-0.91797 1.0742-0.17578 0.015626-0.34766-0.019531-0.5-0.089843l-3.6445-1.5195-3.6836 1.5312c-0.50781 0.21094-1.0938-0.03125-1.3047-0.53906-0.0625-0.14844-0.085937-0.30859-0.074218-0.46094l0.31641-3.9805-2.5938-3.0273c-0.35938-0.41797-0.30859-1.0469 0.10938-1.4062 0.125-0.10938 0.26953-0.17578 0.41797-0.21094l3.8789-0.92969 2.0781-3.4023c0.28516-0.46875 0.90234-0.61719 1.3711-0.33203 0.14062 0.085937 0.25391 0.20312 0.33594 0.33594zm0.58984 4.793-1.4453-2.3633-1.4258 2.332c-0.13281 0.23438-0.35937 0.41797-0.64062 0.48828l-2.6953 0.64453 1.7656 2.0625c0.1875 0.19922 0.29688 0.47266 0.27344 0.76953l-0.22266 2.7656 2.5586-1.0625c0.23828-0.097656 0.51172-0.10547 0.76562 0l2.5586 1.0625-0.22266-2.7656c-0.019532-0.25391 0.058593-0.51562 0.23828-0.72656l1.8008-2.1055-2.6953-0.64453c-0.25-0.058593-0.47656-0.21484-0.62109-0.45312zm17.348-4.0039 1.7852 2.9258 3.3438 0.79688c0.53516 0.125 0.86719 0.66797 0.74219 1.2031-0.042968 0.18359-0.13281 0.33984-0.25781 0.46484l-2.1914 2.5625 0.27344 3.4297c0.042969 0.55078-0.36719 1.0312-0.91797 1.0742-0.17578 0.015625-0.34766-0.019531-0.5-0.089844l-3.1328-1.3047-3.1719 1.3203c-0.50781 0.21094-1.0938-0.03125-1.3047-0.53906-0.0625-0.14844-0.085937-0.30859-0.074219-0.46094l0.27344-3.4297-2.2344-2.6094c-0.35938-0.41797-0.30859-1.0469 0.10938-1.4062 0.125-0.10938 0.26953-0.17578 0.41797-0.21094l3.3438-0.80078 1.7891-2.9297c0.28516-0.46875 0.90234-0.61719 1.3711-0.33203 0.14062 0.085937 0.25391 0.20312 0.33594 0.33594zm0.30078 4.3203-1.1562-1.8945-1.1367 1.8594c-0.13281 0.23828-0.35938 0.42188-0.64062 0.48828l-2.1562 0.51563 1.4062 1.6445c0.1875 0.19922 0.29688 0.47266 0.27344 0.76953l-0.17578 2.2109 2.0469-0.85156c0.23828-0.097656 0.51172-0.10547 0.76562 0l2.0469 0.85156-0.17578-2.2109c-0.019531-0.25391 0.058594-0.51562 0.23828-0.72656l1.4414-1.6836-2.1562-0.51562c-0.25-0.058594-0.47656-0.21484-0.62109-0.45312zm16.816-4.3203 1.7852 2.9258 3.3438 0.79688c0.53516 0.125 0.86719 0.66797 0.74219 1.2031-0.042969 0.18359-0.13281 0.34375-0.25781 0.46875l-2.1914 2.5586 0.27344 3.4297c0.042969 0.55078-0.36719 1.0312-0.91797 1.0742-0.17578 0.015625-0.34766-0.019531-0.5-0.089844l-3.1328-1.3047-3.1719 1.3203c-0.50781 0.21094-1.0938-0.03125-1.3047-0.53906-0.0625-0.14844-0.085938-0.30859-0.074219-0.46094l0.27344-3.4297-2.2344-2.6094c-0.35937-0.41797-0.30859-1.0469 0.10938-1.4062 0.125-0.10938 0.26953-0.17578 0.41797-0.21094l3.3438-0.80078 1.7891-2.9297c0.28516-0.46875 0.90234-0.61719 1.3711-0.33203 0.14063 0.085937 0.25391 0.20312 0.33594 0.33594zm0.30078 4.3203-1.1562-1.8945-1.1367 1.8594c-0.13281 0.23828-0.35937 0.42188-0.64062 0.48828l-2.1562 0.51563 1.4062 1.6445c0.1875 0.19922 0.29687 0.47266 0.27344 0.76953l-0.17578 2.2109 2.0469-0.85156c0.23828-0.097656 0.51172-0.10547 0.76562 0l2.0469 0.85156-0.17578-2.2109c-0.019532-0.25391 0.058593-0.51562 0.23828-0.72656l1.4414-1.6836-2.1562-0.51562c-0.25-0.058594-0.47656-0.21484-0.62109-0.45312zm-70.41-4.3203 1.7852 2.9258 3.3438 0.79688c0.53516 0.125 0.86719 0.66797 0.74219 1.2031-0.042969 0.18359-0.13281 0.33984-0.25781 0.46875l-2.1914 2.5586 0.27344 3.4297c0.042968 0.55078-0.36719 1.0312-0.91797 1.0742-0.17578 0.015625-0.34766-0.019531-0.5-0.089844l-3.1367-1.3047-3.1719 1.3203c-0.50781 0.21094-1.0938-0.03125-1.3047-0.53906-0.0625-0.14844-0.085938-0.30859-0.074219-0.46094l0.27344-3.4297-2.2344-2.6094c-0.35938-0.41797-0.30859-1.0469 0.10938-1.4062 0.125-0.10938 0.26953-0.17578 0.41797-0.21094l3.3438-0.80078 1.7891-2.9297c0.28516-0.46875 0.90234-0.61719 1.3711-0.33203 0.14062 0.085937 0.25391 0.20312 0.33594 0.33594zm0.30078 4.3203-1.1562-1.8945-1.1367 1.8594c-0.13281 0.23828-0.35938 0.42188-0.64063 0.48828l-2.1562 0.51563 1.4062 1.6406c0.1875 0.19922 0.29688 0.47266 0.27344 0.76953l-0.17578 2.2109 2.0469-0.85156c0.23828-0.097657 0.51172-0.10547 0.76562 0l2.0469 0.85156-0.17578-2.2109c-0.019531-0.25391 0.058594-0.51562 0.23828-0.72656l1.4414-1.6836-2.1562-0.51563c-0.25-0.058593-0.47656-0.21484-0.62109-0.45312zm16.812-4.3203 1.7852 2.9258 3.3438 0.79688c0.53516 0.125 0.86719 0.66797 0.74219 1.2031-0.042969 0.18359-0.13281 0.34375-0.25781 0.46875l-2.1914 2.5586 0.27344 3.4297c0.042969 0.55078-0.36719 1.0312-0.91797 1.0742-0.17578 0.015625-0.34766-0.019531-0.5-0.089844l-3.1367-1.3047-3.1719 1.3203c-0.50781 0.21094-1.0938-0.03125-1.3047-0.53906-0.0625-0.14844-0.085938-0.30859-0.074219-0.46094l0.27344-3.4297-2.2344-2.6094c-0.35937-0.41797-0.30859-1.0469 0.10938-1.4062 0.125-0.10938 0.26953-0.17578 0.41797-0.21094l3.3438-0.80078 1.7891-2.9297c0.28516-0.46875 0.90234-0.61719 1.3711-0.33203 0.14063 0.085937 0.25391 0.20312 0.33594 0.33594zm0.30078 4.3203-1.1562-1.8945-1.1367 1.8594c-0.13281 0.23828-0.35938 0.42188-0.64062 0.48828l-2.1562 0.51563 1.4062 1.6406c0.1875 0.19922 0.29688 0.47266 0.27344 0.76953l-0.17578 2.2109 2.0469-0.85156c0.23828-0.097657 0.51172-0.10547 0.76562 0l2.0469 0.85156-0.17578-2.2109c-0.019532-0.25391 0.058594-0.51562 0.23828-0.72656l1.4414-1.6836-2.1562-0.51563c-0.25-0.058593-0.47656-0.21484-0.62109-0.45312zm63.285 9.6914h-2.75c-0.51562 0-0.95703-0.39844-0.99609-0.92188l-0.29688-3.7188c-0.007813-0.14062 0.007813-0.28906 0.0625-0.42969l2.1836-5.7773-4.9375-2.8711c-0.23828-0.13281-0.42578-0.35938-0.49219-0.64844-0.125-0.53516 0.21094-1.0742 0.74609-1.1992l1.8867-0.44531c0.09375-0.03125 0.19141-0.042969 0.29688-0.042969h4.3008v-8h-5.9648c-0.24219-0.003906-0.48438-0.089844-0.67578-0.26562l-2.5391-2.332c-0.17187-0.15625-0.28906-0.375-0.31641-0.62109l-0.8125-7.0508-6.4492-2.9531c-0.21094-0.097656-0.38672-0.26562-0.49219-0.49219l-2.9531-6.4492-7.0508-0.8125c-0.23047-0.027344-0.45312-0.13281-0.62109-0.31641l-4.8008-5.2266-6.8984 1.3906c-0.24219 0.0625-0.50781 0.035156-0.74219-0.09375l-6.1836-3.4844-6.1836 3.4844c-0.19922 0.10938-0.44141 0.15625-0.68359 0.10547l-6.957-1.4023-4.8008 5.2266c-0.15625 0.17187-0.375 0.28906-0.62109 0.31641l-7.0508 0.8125-2.9531 6.4492c-0.097656 0.21094-0.26562 0.38672-0.49219 0.49219l-6.4492 2.9531-0.8125 7.0508c-0.027344 0.23047-0.13281 0.45312-0.31641 0.62109l-2.4961 2.293c-0.18359 0.1875-0.4375 0.30469-0.71875 0.30469h-5.9648v8h4.3008l0.22656 0.027344 1.9531 0.46094c0.25781 0.0625 0.49219 0.22266 0.63672 0.47266 0.27344 0.47656 0.11328 1.0859-0.36328 1.3633l-4.957 2.8867 2.1641 5.7266c0.0625 0.14453 0.09375 0.30859 0.082031 0.47656l-0.29297 3.6641c-0.011719 0.53906-0.45703 0.97656-1 0.97656h-2.75v8h5.9648c0.24219 0.003906 0.48438 0.089844 0.67578 0.26562l2.5391 2.3359c0.17187 0.15625 0.28906 0.375 0.31641 0.62109l0.8125 7.0508 6.4492 2.9531c0.21094 0.097656 0.38672 0.26562 0.49219 0.49219l2.9531 6.4492 7.0508 0.8125c0.23047 0.027344 0.45312 0.13281 0.62109 0.31641l4.8008 5.2266 6.8984-1.3906c0.24219-0.0625 0.50781-0.035156 0.74219 0.09375l6.1836 3.4844 6.1836-3.4844c0.19922-0.10938 0.44141-0.15625 0.68359-0.10547l6.957 1.4023 4.8008-5.2266c0.15625-0.17188 0.375-0.28906 0.62109-0.31641l7.0508-0.8125 2.9531-6.4492c0.097656-0.21094 0.26562-0.38672 0.49219-0.49219l6.4492-2.9531 0.8125-7.0508c0.027344-0.23047 0.13281-0.45312 0.31641-0.62109l2.4961-2.293c0.18359-0.1875 0.4375-0.30469 0.71875-0.30469h5.9648v-8z"
     id="path1" />
</svg>
